<?xml version="1.0" encoding="UTF-8" standalone="no"?>
<!-- Created with Inkscape (http://www.inkscape.org/) -->

<svg
   xmlns:dc="http://purl.org/dc/elements/1.1/"
   xmlns:cc="http://creativecommons.org/ns#"
   xmlns:rdf="http://www.w3.org/1999/02/22-rdf-syntax-ns#"
   xmlns:svg="http://www.w3.org/2000/svg"
   xmlns="http://www.w3.org/2000/svg"
   xmlns:sodipodi="http://sodipodi.sourceforge.net/DTD/sodipodi-0.dtd"
   xmlns:inkscape="http://www.inkscape.org/namespaces/inkscape"
   width="64px"
   height="64px"
   viewBox="0 0 64 64"
   version="1.1"
   id="SVGRoot"
   inkscape:version="0.92.2 (5c3e80d, 2017-08-06)"
   sodipodi:docname="love.svg">
  <sodipodi:namedview
     id="base"
     pagecolor="#ffffff"
     bordercolor="#666666"
     borderopacity="1.0"
     inkscape:pageopacity="0.0"
     inkscape:pageshadow="2"
     inkscape:zoom="4.0000001"
     inkscape:cx="16.044696"
     inkscape:cy="20.35634"
     inkscape:document-units="px"
     inkscape:current-layer="layer1"
     showgrid="false"
     inkscape:window-width="1366"
     inkscape:window-height="705"
     inkscape:window-x="-8"
     inkscape:window-y="-8"
     inkscape:window-maximized="1"
     inkscape:grid-bbox="true">
    <inkscape:grid
       type="xygrid"
       id="grid18504" />
  </sodipodi:namedview>
  <defs
     id="defs9379" />
  <metadata
     id="metadata9382">
    <rdf:RDF>
      <cc:Work
         rdf:about="">
        <dc:format>image/svg+xml</dc:format>
        <dc:type
           rdf:resource="http://purl.org/dc/dcmitype/StillImage" />
        <dc:title></dc:title>
      </cc:Work>
    </rdf:RDF>
  </metadata>
  <g
     id="layer1"
     inkscape:groupmode="layer"
     inkscape:label="Layer 1">
    <rect
       style="opacity:1;fill:#ffdd55;fill-opacity:1;stroke:none;stroke-width:4.21401167;stroke-miterlimit:4;stroke-dasharray:none;stroke-opacity:1"
       id="rect18502"
       width="55"
       height="55"
       x="5"
       y="4"
       ry="9.2380953" />
    <path
       style="opacity:1;fill:#666666;fill-opacity:1;stroke:none;stroke-width:3.46592164;stroke-miterlimit:4;stroke-dasharray:none;stroke-opacity:1"
       d="M 19.916,38.642042 A 14.018421,14.84887 0 0 0 33.327225,49.179688 14.018421,14.84887 0 0 0 46.729548,38.642042 H 44.972129 A 14.018421,14.84887 0 0 1 33.170535,45.509394 14.018421,14.84887 0 0 1 21.351137,38.642042 Z"
       id="path18522"
       inkscape:connector-curvature="0" />
    <path
       style="opacity:1;fill:#ff8080;fill-opacity:1;stroke:none;stroke-width:0.12498431;stroke-miterlimit:4;stroke-dasharray:none;stroke-opacity:1"
       d="m 43.471273,29.978409 c -0.51248,-1.321797 -1.307239,-2.885793 -2.517243,-4.953661 -1.216783,-2.079444 -1.60356,-2.813505 -1.950193,-3.701253 -0.440602,-1.128407 -0.627691,-2.3217 -0.530581,-3.384137 0.04169,-0.456177 0.23487,-1.310461 0.384064,-1.698424 0.68628,-1.784668 2.214445,-2.814373 3.976624,-2.679522 0.46374,0.03548 1.184639,0.255215 1.58743,0.483937 0.724166,0.411019 1.220783,0.929696 1.60826,1.679692 0.285184,0.552011 0.420699,1.043803 0.566224,2.054877 0.06463,0.449048 0.128483,0.819977 0.14188,0.824286 0.01344,0.0043 0.07121,-0.05497 0.128455,-0.131733 0.384433,-0.515523 1.075035,-1.331741 1.279694,-1.512459 1.02465,-0.904786 2.263879,-1.179431 3.558969,-0.788765 0.518298,0.15649 0.858211,0.325523 1.276607,0.635391 0.976052,0.722872 1.590218,1.902643 1.673133,3.213965 0.0339,0.536172 -0.01089,0.935966 -0.178649,1.593095 -0.159413,0.624593 -0.246189,0.856167 -0.515521,1.375626 -0.622544,1.200736 -1.683204,2.186963 -3.481102,3.236792 -0.275745,0.161015 -0.91179,0.516072 -1.413429,0.789018 -2.641599,1.43731 -4.026213,2.323752 -5.244431,3.35754 -0.06452,0.05474 -0.127889,0.09634 -0.140815,0.09245 -0.01301,-0.004 -0.107156,-0.222881 -0.209404,-0.486597 z"
       id="path9407"
       inkscape:connector-curvature="0" />
    <path
       inkscape:connector-curvature="0"
       id="path18551"
       d="m 22.749797,29.978409 c 0.530371,-1.321797 1.352876,-2.885793 2.605122,-4.953661 1.259261,-2.079444 1.659541,-2.813505 2.018275,-3.701253 0.455984,-1.128407 0.649604,-2.3217 0.549104,-3.384137 -0.04314,-0.456177 -0.243069,-1.310461 -0.397472,-1.698424 -0.710238,-1.784668 -2.291752,-2.814373 -4.11545,-2.679522 -0.479929,0.03548 -1.225995,0.255215 -1.642848,0.483937 -0.749447,0.411019 -1.263401,0.929696 -1.664405,1.679692 -0.29514,0.552011 -0.435386,1.043803 -0.585992,2.054877 -0.06689,0.449048 -0.132968,0.819977 -0.146833,0.824286 -0.01391,0.0043 -0.0737,-0.05497 -0.132939,-0.131733 -0.397854,-0.515523 -1.112565,-1.331741 -1.324369,-1.512459 -1.060421,-0.904786 -2.342912,-1.179431 -3.683215,-0.788765 -0.536392,0.15649 -0.888171,0.325523 -1.321174,0.635391 -1.010126,0.722872 -1.645733,1.902643 -1.731543,3.213965 -0.03508,0.536172 0.01127,0.935966 0.184886,1.593095 0.164978,0.624593 0.254784,0.856167 0.533518,1.375626 0.644278,1.200736 1.741966,2.186963 3.602629,3.236792 0.285372,0.161015 0.943622,0.516072 1.462773,0.789018 2.733819,1.43731 4.16677,2.323752 5.427517,3.35754 0.06677,0.05474 0.132354,0.09634 0.145731,0.09245 0.01346,-0.004 0.110897,-0.222881 0.216714,-0.486597 z"
       style="opacity:1;fill:#ff8080;fill-opacity:1;stroke:none;stroke-width:0.12714723;stroke-miterlimit:4;stroke-dasharray:none;stroke-opacity:1" />
  </g>
</svg>
