<?xml version="1.0" encoding="UTF-8" standalone="no"?>
<!-- Created with Inkscape (http://www.inkscape.org/) -->

<svg
   xmlns:dc="http://purl.org/dc/elements/1.1/"
   xmlns:cc="http://creativecommons.org/ns#"
   xmlns:rdf="http://www.w3.org/1999/02/22-rdf-syntax-ns#"
   xmlns:svg="http://www.w3.org/2000/svg"
   xmlns="http://www.w3.org/2000/svg"
   xmlns:sodipodi="http://sodipodi.sourceforge.net/DTD/sodipodi-0.dtd"
   xmlns:inkscape="http://www.inkscape.org/namespaces/inkscape"
   width="64px"
   height="64px"
   viewBox="0 0 64 64"
   version="1.1"
   id="SVGRoot"
   inkscape:version="0.92.2 (5c3e80d, 2017-08-06)"
   sodipodi:docname="smart.svg">
  <sodipodi:namedview
     id="base"
     pagecolor="#ffffff"
     bordercolor="#666666"
     borderopacity="1.0"
     inkscape:pageopacity="0.0"
     inkscape:pageshadow="2"
     inkscape:zoom="4.0000001"
     inkscape:cx="-46.316965"
     inkscape:cy="41.569543"
     inkscape:document-units="px"
     inkscape:current-layer="layer1"
     showgrid="false"
     inkscape:window-width="1366"
     inkscape:window-height="705"
     inkscape:window-x="-8"
     inkscape:window-y="-8"
     inkscape:window-maximized="1"
     inkscape:grid-bbox="true"
     inkscape:object-nodes="false">
    <inkscape:grid
       type="xygrid"
       id="grid18504" />
  </sodipodi:namedview>
  <defs
     id="defs9379" />
  <metadata
     id="metadata9382">
    <rdf:RDF>
      <cc:Work
         rdf:about="">
        <dc:format>image/svg+xml</dc:format>
        <dc:type
           rdf:resource="http://purl.org/dc/dcmitype/StillImage" />
        <dc:title></dc:title>
      </cc:Work>
    </rdf:RDF>
  </metadata>
  <g
     id="layer1"
     inkscape:groupmode="layer"
     inkscape:label="Layer 1">
    <rect
       style="opacity:1;fill:#ffdd55;fill-opacity:1;stroke:none;stroke-width:4.21401167;stroke-miterlimit:4;stroke-dasharray:none;stroke-opacity:1"
       id="rect18502"
       width="55"
       height="55"
       x="5"
       y="4"
       ry="9.2380953" />
    <ellipse
       style="opacity:1;fill:#666666;fill-opacity:1;stroke:none;stroke-width:4.21645737;stroke-miterlimit:4;stroke-dasharray:none;stroke-opacity:1"
       id="path9389"
       cx="20.898621"
       cy="22.362272"
       rx="8.2484961"
       ry="8.4872732" />
    <ellipse
       cy="22.391569"
       cx="45.135948"
       id="circle9391"
       style="opacity:1;fill:#666666;fill-opacity:1;stroke:none;stroke-width:4.21645737;stroke-miterlimit:4;stroke-dasharray:none;stroke-opacity:1"
       rx="8.2484961"
       ry="8.4872732" />
    <path
       style="opacity:1;fill:#666666;fill-opacity:1;stroke:none;stroke-width:4.21645737;stroke-miterlimit:4;stroke-dasharray:none;stroke-opacity:1"
       d="m 33.106257,17.199182 a 5.4989972,5.6581819 0 0 0 -5.498997,5.658182 5.4989972,5.6581819 0 0 0 0.03652,0.601182 5.4989972,5.6581819 0 0 1 5.393743,-4.56191 5.4989972,5.6581819 0 0 1 5.462477,5.057 5.4989972,5.6581819 0 0 0 0.105254,-1.096272 5.4989972,5.6581819 0 0 0 -5.498997,-5.658182 z"
       id="path9393"
       inkscape:connector-curvature="0" />
    <path
       style="opacity:1;fill:#666666;fill-opacity:1;stroke:none;stroke-width:3.46592164;stroke-miterlimit:4;stroke-dasharray:none;stroke-opacity:1"
       d="m 26.178224,44.864014 a 14.84887,14.018421 70.720948 0 0 16.138354,5.518738 14.84887,14.018421 70.720948 0 0 9.171537,-14.371749 l -1.658866,0.580246 a 14.84887,14.018421 70.720948 0 1 -8.872392,10.378767 14.84887,14.018421 70.720948 0 1 -13.423976,-2.57984 z"
       id="path18522-2"
       inkscape:connector-curvature="0" />
  </g>
</svg>
