<?xml version="1.0" encoding="UTF-8" standalone="no"?>
<!-- Created with Inkscape (http://www.inkscape.org/) -->

<svg
   xmlns:dc="http://purl.org/dc/elements/1.1/"
   xmlns:cc="http://creativecommons.org/ns#"
   xmlns:rdf="http://www.w3.org/1999/02/22-rdf-syntax-ns#"
   xmlns:svg="http://www.w3.org/2000/svg"
   xmlns="http://www.w3.org/2000/svg"
   xmlns:sodipodi="http://sodipodi.sourceforge.net/DTD/sodipodi-0.dtd"
   xmlns:inkscape="http://www.inkscape.org/namespaces/inkscape"
   width="64px"
   height="64px"
   viewBox="0 0 64 64"
   version="1.1"
   id="SVGRoot"
   inkscape:version="0.92.2 (5c3e80d, 2017-08-06)"
   sodipodi:docname="tears.svg">
  <sodipodi:namedview
     id="base"
     pagecolor="#ffffff"
     bordercolor="#666666"
     borderopacity="1.0"
     inkscape:pageopacity="0.0"
     inkscape:pageshadow="2"
     inkscape:zoom="2.8284272"
     inkscape:cx="-66.98469"
     inkscape:cy="20.35634"
     inkscape:document-units="px"
     inkscape:current-layer="layer1"
     showgrid="false"
     inkscape:window-width="1366"
     inkscape:window-height="705"
     inkscape:window-x="-8"
     inkscape:window-y="-8"
     inkscape:window-maximized="1"
     inkscape:grid-bbox="true"
     inkscape:object-nodes="false">
    <inkscape:grid
       type="xygrid"
       id="grid18504" />
  </sodipodi:namedview>
  <defs
     id="defs9379" />
  <metadata
     id="metadata9382">
    <rdf:RDF>
      <cc:Work
         rdf:about="">
        <dc:format>image/svg+xml</dc:format>
        <dc:type
           rdf:resource="http://purl.org/dc/dcmitype/StillImage" />
        <dc:title />
      </cc:Work>
    </rdf:RDF>
  </metadata>
  <g
     id="layer1"
     inkscape:groupmode="layer"
     inkscape:label="Layer 1">
    <rect
       style="opacity:1;fill:#ffdd55;fill-opacity:1;stroke:none;stroke-width:4.21401167;stroke-miterlimit:4;stroke-dasharray:none;stroke-opacity:1"
       id="rect18502"
       width="55"
       height="55"
       x="5"
       y="4"
       ry="9.2380953" />
    <ellipse
       style="opacity:1;fill:#666666;fill-opacity:1;stroke:none;stroke-width:3.62315345;stroke-miterlimit:4;stroke-dasharray:none;stroke-opacity:1"
       id="path18509"
       cx="21.55953"
       cy="22.696423"
       rx="4.1024246"
       ry="4.1615934" />
    <ellipse
       cy="22.597252"
       cx="44.310524"
       id="circle18511"
       style="opacity:1;fill:#666666;fill-opacity:1;stroke:none;stroke-width:3.62315345;stroke-miterlimit:4;stroke-dasharray:none;stroke-opacity:1"
       rx="4.1024246"
       ry="4.1615934" />
    <path
       style="opacity:1;fill:#666666;fill-opacity:1;stroke:none;stroke-width:3.46592164;stroke-miterlimit:4;stroke-dasharray:none;stroke-opacity:1"
       d="M 46.657918,49.358434 A 14.018421,14.84887 0.76593343 0 0 33.388755,38.642453 14.018421,14.84887 0.76593343 0 0 19.846766,49 l 1.757262,0.02349 a 14.018421,14.84887 0.76593343 0 1 11.89234,-6.708979 14.018421,14.84887 0.76593343 0 1 11.726541,7.024736 z"
       id="path18522"
       inkscape:connector-curvature="0" />
    <path
       inkscape:connector-curvature="0"
       style="fill:#00aad4;fill-opacity:1;stroke-width:0.41996258"
       d="m 50.53033,28.292893 c -1.858435,2.960931 -2.903806,5.694097 -2.903806,7.926184 0,1.913216 1.316392,3.46201 2.903806,3.46201 1.587414,0 2.903806,-1.548794 2.903806,-3.46201 0,-2.232087 -1.084087,-5.010806 -2.903806,-7.926184"
       id="path52" />
    <path
       id="path9392"
       d="m 15.528545,28.646447 c -1.858435,2.960931 -2.903806,5.694097 -2.903806,7.926184 0,1.913216 1.316392,3.46201 2.903806,3.46201 1.587414,0 2.903806,-1.548794 2.903806,-3.46201 0,-2.232087 -1.084087,-5.010806 -2.903806,-7.926184"
       style="fill:#00aad4;fill-opacity:1;stroke-width:0.41996258"
       inkscape:connector-curvature="0" />
  </g>
</svg>
