<?xml version="1.0" encoding="UTF-8" standalone="no"?>
<!-- Created with Inkscape (http://www.inkscape.org/) -->

<svg
   xmlns:dc="http://purl.org/dc/elements/1.1/"
   xmlns:cc="http://creativecommons.org/ns#"
   xmlns:rdf="http://www.w3.org/1999/02/22-rdf-syntax-ns#"
   xmlns:svg="http://www.w3.org/2000/svg"
   xmlns="http://www.w3.org/2000/svg"
   xmlns:sodipodi="http://sodipodi.sourceforge.net/DTD/sodipodi-0.dtd"
   xmlns:inkscape="http://www.inkscape.org/namespaces/inkscape"
   width="64px"
   height="64px"
   viewBox="0 0 64 64"
   version="1.1"
   id="SVGRoot"
   inkscape:version="0.92.2 (5c3e80d, 2017-08-06)"
   sodipodi:docname="turban.svg">
  <sodipodi:namedview
     id="base"
     pagecolor="#ffffff"
     bordercolor="#666666"
     borderopacity="1.0"
     inkscape:pageopacity="0"
     inkscape:pageshadow="2"
     inkscape:zoom="2.8284271"
     inkscape:cx="-24.286303"
     inkscape:cy="46.872845"
     inkscape:document-units="px"
     inkscape:current-layer="layer1"
     showgrid="false"
     inkscape:window-width="1366"
     inkscape:window-height="705"
     inkscape:window-x="-8"
     inkscape:window-y="-8"
     inkscape:window-maximized="1"
     inkscape:grid-bbox="true"
     inkscape:object-nodes="false">
    <inkscape:grid
       type="xygrid"
       id="grid18504" />
  </sodipodi:namedview>
  <defs
     id="defs9379" />
  <metadata
     id="metadata9382">
    <rdf:RDF>
      <cc:Work
         rdf:about="">
        <dc:format>image/svg+xml</dc:format>
        <dc:type
           rdf:resource="http://purl.org/dc/dcmitype/StillImage" />
        <dc:title />
      </cc:Work>
    </rdf:RDF>
  </metadata>
  <g
     id="layer1"
     inkscape:groupmode="layer"
     inkscape:label="Layer 1">
    <rect
       style="opacity:1;fill:#ffdd55;fill-opacity:1;stroke:none;stroke-width:3.38510227;stroke-miterlimit:4;stroke-dasharray:none;stroke-opacity:1"
       id="rect18502"
       width="44.049644"
       height="44.313408"
       x="11.186049"
       y="16.436594"
       ry="7.4431176" />
    <ellipse
       style="opacity:1;fill:#666666;fill-opacity:1;stroke:none;stroke-width:2.91046786;stroke-miterlimit:4;stroke-dasharray:none;stroke-opacity:1"
       id="path18509"
       cx="24.970406"
       cy="33.838871"
       rx="3.2856424"
       ry="3.3529887" />
    <ellipse
       cy="33.758968"
       cx="43.191738"
       id="circle18511"
       style="opacity:1;fill:#666666;fill-opacity:1;stroke:none;stroke-width:2.91046786;stroke-miterlimit:4;stroke-dasharray:none;stroke-opacity:1"
       rx="3.2856424"
       ry="3.3529887" />
    <path
       style="fill:#666666;fill-opacity:1;stroke-width:0.05965675"
       d="M 21.667993,53.769722 C 20.312641,53.605632 19.390262,53.236686 18.468117,52.489786 17.185643,51.451035 16.357417,49.532445 16.383171,47.66 l 0.0054,-0.396993 0.104483,0.326981 c 0.286562,0.896773 0.7651,1.356005 1.712227,1.643151 0.276844,0.08393 0.559727,0.108606 1.255328,0.109499 0.773729,8.85e-4 0.960059,-0.018 1.34692,-0.137246 0.869938,-0.268164 1.643556,-0.816823 2.284637,-1.6203 0.208601,-0.261445 0.738147,-1.042813 1.176766,-1.736368 0.948035,-1.499057 1.331914,-2.021366 1.866226,-2.539206 0.875925,-0.848923 2.361101,-1.699043 3.442337,-1.97041 0.683188,-0.171464 1.760835,-0.185106 2.391752,-0.03028 0.583747,0.143257 1.42177,0.555273 1.93337,0.950554 l 0.434008,0.33533 0.434009,-0.33533 c 0.511595,-0.395281 1.349617,-0.807297 1.933368,-0.950554 0.63092,-0.154831 1.708564,-0.141189 2.391749,0.03028 1.08124,0.271367 2.56641,1.121487 3.442336,1.97041 0.534313,0.51784 0.918191,1.040149 1.866227,2.539206 0.438619,0.693555 0.968164,1.474923 1.176771,1.736368 0.641081,0.803477 1.414694,1.352136 2.284636,1.6203 0.386861,0.119254 0.573193,0.13824 1.34692,0.137246 0.695599,-8.87e-4 0.97848,-0.02556 1.255329,-0.109499 0.947126,-0.287146 1.425664,-0.746378 1.712222,-1.643151 l 0.104487,-0.326981 0.0054,0.396993 c 0.01105,0.803478 -0.189606,1.868012 -0.491072,2.605281 -0.636912,1.557608 -1.813101,2.680221 -3.362972,3.209781 -3.23119,1.104037 -7.75751,-0.705539 -12.572955,-5.026537 -0.847208,-0.760217 -1.107381,-0.914694 -1.543866,-0.916682 -0.392542,-0.0019 -0.636511,0.136267 -1.334515,0.755163 -3.21442,2.850123 -6.118875,4.601299 -8.698191,5.244379 -0.891064,0.222159 -1.95352,0.318862 -2.618633,0.238337 z"
       id="path9390"
       inkscape:connector-curvature="0" />
    <ellipse
       style="opacity:1;fill:#666666;fill-opacity:1;stroke:none;stroke-width:3.03608251;stroke-miterlimit:4;stroke-dasharray:none;stroke-opacity:1"
       id="path18525"
       cx="34.312111"
       cy="53.498718"
       rx="2.3025949"
       ry="0.80569834" />
    <g
       id="g9403"
       transform="translate(-98.390165,-19.588388)"
       style="stroke:#666666;stroke-opacity:1">
      <g
         transform="translate(38.75,15.25)"
         id="g9392"
         style="stroke:#666666;stroke-opacity:1">
        <path
           style="fill:none;stroke:#666666;stroke-width:0.31232283px;stroke-linecap:butt;stroke-linejoin:miter;stroke-opacity:1"
           d="M 70.598826,39.068299 C 104.54381,10.456374 104.54381,10.1618 104.54381,10.1618 c 0,0 -1.09924,-1.9631927 -2.02732,-2.6512625 C 101.47975,6.7419081 100.10152,6.3834839 98.799726,6.0376139 97.017506,5.5640981 95.146515,5.3267178 93.2862,5.2372743 90.787861,5.1171566 88.245669,5.1725753 85.791061,5.5957425 c -2.515917,0.4337371 -4.967289,1.2154058 -7.264579,2.2093796 -1.894257,0.8195952 -3.714541,1.8243928 -5.286737,3.0574009 -1.630398,1.278661 -3.136572,2.744067 -4.194607,4.418759 -1.153053,1.825088 -1.824376,3.888106 -2.225254,5.942219 -0.310841,1.592766 -0.226288,3.720451 -0.119456,4.84584 0.226028,2.381036 0.642428,4.762215 1.351549,7.070021 0.626367,2.038485 2.546854,5.928937 2.546854,5.928937 z"
           id="path18522"
           inkscape:connector-curvature="0"
           sodipodi:nodetypes="ccaaaaaaaasscc" />
        <path
           style="fill:none;stroke:#666666;stroke-width:0.31232283px;stroke-linecap:butt;stroke-linejoin:miter;stroke-opacity:1"
           d="m 90.084487,22.36485 22.512013,12.947024 3.02289,1.848102 0.17729,-0.02525 c 0,0 1.50043,-5.177248 1.58685,-7.82495 0.0952,-2.915889 -0.29824,-5.876925 -1.1826,-8.690244 -0.56978,-1.812543 -2.2474,-5.040631 -3.63229,-6.480852 -2.33302,-2.426197 -8.02483,-3.976881 -8.02483,-3.976881 v 0"
           id="path18524"
           inkscape:connector-curvature="0"
           sodipodi:nodetypes="ccccssscc" />
      </g>
      <path
         inkscape:connector-curvature="0"
         id="path9394"
         d="m 109.13548,53.361893 c -2.38235,-4.727614 -3.50911,-9.275149 -3.50859,-14.160369 2.1e-4,-1.954755 0.0358,-2.330039 0.33496,-3.527178 0.60266,-2.41199 1.50528,-4.442944 2.60756,-5.867157 2.53776,-3.278966 6.58625,-5.939626 11.54646,-7.588305 3.46146,-1.150523 5.84089,-1.517447 9.83882,-1.517208 3.08286,1.83e-4 5.31897,0.241842 7.56544,0.817603 2.86106,0.733279 3.85807,1.350119 5.02676,3.109991 l 0.48352,0.7281 -1.14477,1.016453 c -1.68794,1.49874 -7.9662,6.880051 -12.275,10.521333 -0.48413,0.409128 -4.36538,3.693209 -8.625,7.297959 -4.25963,3.604751 -8.6007,7.276918 -9.64683,8.16037 l -1.90205,1.606278 z"
         style="opacity:1;fill:#ececec;fill-opacity:1;stroke:#666666;stroke-width:0.125;stroke-miterlimit:4;stroke-dasharray:none;stroke-opacity:1" />
      <path
         inkscape:connector-curvature="0"
         id="path9396"
         d="m 153.05337,51.351898 c -0.72188,-0.448552 -6.15,-3.596685 -12.0625,-6.995853 -5.9125,-3.399167 -10.94144,-6.296921 -11.17542,-6.439452 l -0.42541,-0.259148 0.60785,-0.509211 c 1.57431,-1.318845 11.95282,-10.21882 12.59662,-10.80209 0.85894,-0.778186 0.75589,-0.780677 3.02136,0.07303 3.61144,1.360914 5.30336,2.532082 6.69438,4.633939 2.2503,3.400254 3.41406,7.250722 3.57729,11.835911 0.0609,1.710859 0.0314,2.233224 -0.20421,3.613215 -0.22735,1.33173 -1.1977,5.575276 -1.29087,5.645241 -0.0146,0.01099 -0.61722,-0.347031 -1.33909,-0.795582 z"
         style="opacity:1;fill:#ececec;fill-opacity:1;stroke:#666666;stroke-width:0.125;stroke-miterlimit:4;stroke-dasharray:none;stroke-opacity:1" />
    </g>
    <g
       id="g9429"
       style="stroke:#666666;stroke-opacity:1">
      <path
         sodipodi:nodetypes="cssssc"
         inkscape:connector-curvature="0"
         id="path18545"
         d="m 10.454294,33.381771 c 0.325397,-2.156078 0.457042,-2.895565 0.596848,-3.613735 0.223125,-1.146166 0.37463,-1.593471 0.670229,-2.793468 0.401926,-1.631641 0.827702,-2.73999 1.351551,-4.345122 0.494675,-1.515744 1.021779,-3.02795 1.689438,-4.492408 0.195408,-0.428613 0.675774,-1.251988 0.675774,-1.251988"
         style="fill:none;stroke:#666666;stroke-width:0.31232283px;stroke-linecap:butt;stroke-linejoin:miter;stroke-opacity:1" />
      <path
         sodipodi:nodetypes="ccccc"
         inkscape:connector-curvature="0"
         id="path18547"
         d="m 10.538767,33.308121 3.209931,-4.455594 3.63229,-4.308297 2.660864,-3.166761 1.647198,-1.693859"
         style="fill:none;stroke:#666666;stroke-width:0.31232283px;stroke-linecap:butt;stroke-linejoin:miter;stroke-opacity:1" />
    </g>
    <path
       style="fill:none;stroke:#666666;stroke-width:0.31232283px;stroke-linecap:butt;stroke-linejoin:miter;stroke-opacity:1"
       d="m 33.575672,15.751758 4.785696,3.621098 4.532282,3.877789"
       id="path18549"
       inkscape:connector-curvature="0"
       sodipodi:nodetypes="ccc" />
    <path
       style="fill:none;stroke:#666666;stroke-width:0.31232283px;stroke-linecap:butt;stroke-linejoin:miter;stroke-opacity:1"
       d="m 36.513863,13.239571 5.838287,4.373646 5.14306,6.194568"
       id="path18551"
       inkscape:connector-curvature="0"
       sodipodi:nodetypes="ccc" />
  </g>
</svg>
